<svg width="118" height="118" viewBox="0 0 118 118" fill="none" xmlns="http://www.w3.org/2000/svg">
<path d="M84.6483 95.0505C78.3466 88.0123 69.1908 83.5833 59 83.5833C48.8094 83.5833 39.6525 88.0123 33.3507 95.0505M59 103.25C34.5614 103.25 14.75 83.4388 14.75 59C14.75 34.5614 34.5614 14.75 59 14.75C83.4388 14.75 103.25 34.5614 103.25 59C103.25 83.4388 83.4388 103.25 59 103.25ZM59 68.8333C50.8536 68.8333 44.25 62.2298 44.25 54.0833C44.25 45.9372 50.8536 39.3333 59 39.3333C67.1464 39.3333 73.75 45.9372 73.75 54.0833C73.75 62.2298 67.1464 68.8333 59 68.8333Z" stroke="#BB7654" stroke-width="6.66667" stroke-linecap="round" stroke-linejoin="round"/>
</svg>
